<?xml version="1.0" encoding="UTF-8"?>
<svg version="1.1" xmlns="http://www.w3.org/2000/svg" width="493" height="341">
<path d="M0 0 C1.76469803 1.44502519 3.53553916 2.88258144 5.3125 4.3125 C9.49353586 7.72957888 13.60056927 11.22188748 17.6875 14.75 C25.32233747 21.33554975 33.15448136 27.66837982 41 34 C46.97259936 38.83158894 52.8715736 43.73171875 58.6875 48.75 C68.79682533 57.46778665 79.22510291 65.79356132 89.65625 74.12109375 C96.34999787 79.48724829 102.96049192 84.947442 109.5 90.5 C117.64121487 97.41108295 125.83412301 104.23088272 134.41796875 110.58984375 C135.20107422 111.28787109 135.20107422 111.28787109 136 112 C136 112.66 136 113.32 136 114 C136.61875 114.309375 137.2375 114.61875 137.875 114.9375 C139.25 115.625 140.625 116.3125 142 117 C142 117.66 142 118.32 142 119 C142.53367188 119.23589844 143.06734375 119.47179687 143.6171875 119.71484375 C146.68660625 121.37031714 149.3789926 123.43008267 152.125 125.5625 C152.98714111 126.2285022 152.98714111 126.2285022 153.86669922 126.90795898 C158.27433321 130.35046679 162.43453153 134.01063908 166.5546875 137.79296875 C171.97287962 142.68319007 177.69689775 147.2164466 183.45703125 151.6953125 C184.34600098 152.38717651 184.34600098 152.38717651 185.25292969 153.09301758 C186.45403737 154.02690635 187.6565019 154.9590528 188.86035156 155.8894043 C193.42937045 159.45492939 197.62874607 163.30636269 201.71875 167.41796875 C204.7587269 169.52617191 206.36635644 169.58547198 210 169 C212.80749163 167.31366809 212.80749163 167.31366809 215.375 164.9375 C216.31988281 164.1228125 217.26476562 163.308125 218.23828125 162.46875 C219.60533203 161.24671875 219.60533203 161.24671875 221 160 C222.51981394 158.64468934 224.04051669 157.29037405 225.5625 155.9375 C226.18253906 155.36902344 226.80257813 154.80054688 227.44140625 154.21484375 C229 153 229 153 231 153 C231 152.34 231 151.68 231 151 C232.50787161 149.62508701 234.08539761 148.32635538 235.6875 147.0625 C236.68523437 146.26457031 237.68296875 145.46664062 238.7109375 144.64453125 C239.24557617 144.21736816 239.78021484 143.79020508 240.33105469 143.35009766 C243.19815522 141.03074922 246.00391726 138.63959811 248.8125 136.25 C250.87352531 134.49823893 252.93621681 132.74851977 255 131 C255.54446777 130.52498047 256.08893555 130.04996094 256.64990234 129.56054688 C260.78259054 126 260.78259054 126 263 126 C263 125.34 263 124.68 263 124 C264.57286684 122.58561594 266.21139996 121.24395599 267.875 119.9375 C271.63353953 116.93545633 275.27873994 113.88828924 278.8125 110.625 C283.4408489 106.39846917 288.30288433 102.53714386 293.2668457 98.71728516 C295.54814234 96.95679279 297.7649172 95.23971244 299.78515625 93.1796875 C301 92 301 92 303 92 C303.33 91.01 303.66 90.02 304 89 C309.46511628 84 309.46511628 84 312 84 C312 83.34 312 82.68 312 82 C313.56940801 80.56187327 315.20874035 79.1996995 316.875 77.875 C317.87144531 77.07964844 318.86789062 76.28429687 319.89453125 75.46484375 C320.91933594 74.65144531 321.94414062 73.83804688 323 73 C323.95261719 72.21753906 324.90523438 71.43507813 325.88671875 70.62890625 C327.21123047 69.54416016 327.21123047 69.54416016 328.5625 68.4375 C329.36816406 67.77621094 330.17382812 67.11492187 331.00390625 66.43359375 C333 65 333 65 335 65 C335.33 64.01 335.66 63.02 336 62 C337.57054206 60.58303493 339.20746664 59.23893184 340.875 57.9375 C344.82556834 54.79026473 348.61701089 51.56789996 352.3125 48.125 C356.97926523 43.82490918 361.85245772 39.91627201 366.86938477 36.04223633 C371.30846418 32.59585986 375.48612112 28.93689587 379.62109375 25.12890625 C382.85303643 22.23660943 386.24625518 19.57479765 389.67578125 16.921875 C392.07828197 15.0016049 392.07828197 15.0016049 394.35546875 12.609375 C397.92442128 9.08786793 401.84748665 6.14198133 405.828125 3.10546875 C409.48681943 0.28191109 412.75386208 -2.69620421 416 -6 C420.58293121 -8.74975873 425.81622295 -8.52504494 431 -8 C435.94092595 -6.32194968 439.33292798 -3.48486223 442 1 C443.62912354 6.39214575 444.2507084 11.0828618 444.25396729 16.74842834 C444.25708727 17.48536421 444.26020725 18.22230007 444.26342177 18.98156732 C444.27133982 21.42798073 444.26510259 23.8741418 444.25878906 26.32055664 C444.26150166 28.08375696 444.2650641 29.84695615 444.26940918 31.6101532 C444.27850283 36.38275296 444.27500159 41.15526595 444.26865101 45.92786717 C444.26357615 50.92940706 444.26828652 55.93093967 444.27142334 60.93247986 C444.27505831 69.32943044 444.27027583 77.72634579 444.26074219 86.12329102 C444.249855 95.8242872 444.25338703 105.52519933 444.264395 115.22619349 C444.27347699 123.56440673 444.27474879 131.9025947 444.26951766 140.24081129 C444.26640344 145.21693673 444.26597365 150.19302269 444.27259064 155.16914558 C444.27837684 159.84691482 444.27434384 164.52457587 444.26280212 169.20233345 C444.26016252 170.91677165 444.26090867 172.63121899 444.26532745 174.34565353 C444.27081193 176.69007616 444.26391388 179.03415446 444.25396729 181.3785553 C444.25283621 183.34436349 444.25283621 183.34436349 444.25168228 185.34988499 C443.88814739 190.62218362 443.12140732 194.66643453 439.6875 198.75 C432.59891592 204.68462854 425.54492862 206.23896707 416.43225098 206.2784729 C415.71487747 206.2842653 414.99750396 206.2900577 414.25839186 206.29602563 C411.87859455 206.31289552 409.49899268 206.31589078 407.11914062 206.31884766 C405.40369193 206.32815484 403.68824774 206.33832468 401.97280884 206.34928894 C397.33294419 206.3765139 392.69310979 206.39171605 388.05318642 206.40471697 C383.19781667 206.42038042 378.34250837 206.44716037 373.48718262 206.4727478 C364.30057029 206.51947875 355.11394634 206.55625035 345.92727613 206.58942068 C335.4653411 206.62768226 325.00346786 206.67708184 314.54158497 206.72740483 C293.02776898 206.83064014 271.51391385 206.91992782 250 207 C252.55947614 209.0825476 255.11953164 211.16438182 257.6796875 213.24609375 C258.39987061 213.83209351 259.12005371 214.41809326 259.86206055 215.02185059 C263.59808964 218.05910782 267.34378601 221.08148268 271.125 224.0625 C275.08702159 227.21621618 278.92156615 230.4996537 282.75 233.8125 C287.40506684 237.83968292 292.13409271 241.73042368 297 245.5 C302.48063805 249.74580294 307.76847596 254.17317465 313.00927734 258.71069336 C318.59079667 263.53600172 324.2227728 268.358537 330.2734375 272.58984375 C330.84320313 273.05519531 331.41296875 273.52054687 332 274 C332 274.66 332 275.32 332 276 C332.66 276.185625 333.32 276.37125 334 276.5625 C339.34200518 279.12221082 343.52660311 282.97407928 347 287.75 C348.82257982 293.67338442 348.83580412 299.49258763 346.875 305.375 C343.58956461 309.97460955 339.53931385 313.58296622 334 315 C326.55713729 315.93035784 321.169085 314.13421366 315.17749023 309.62988281 C313.37203082 308.10360255 311.61881138 306.53378721 309.875 304.9375 C305.0339388 300.62032117 300.14203873 296.45434553 295 292.5 C289.28813538 288.09000332 283.8229365 283.44579505 278.39233398 278.6953125 C273.02668695 274.00464669 267.54422478 269.4783124 262 265 C260.76390539 263.99400239 259.52825869 262.98745428 258.29296875 261.98046875 C256.94534288 260.8827752 255.59768594 259.7851198 254.25 258.6875 C253.57976807 258.1411792 252.90953613 257.5948584 252.21899414 257.03198242 C248.7149887 254.18239231 245.19445154 251.35759619 241.640625 248.5703125 C240.94549805 248.02286377 240.25037109 247.47541504 239.53417969 246.91137695 C238.20038822 245.86300918 236.86261549 244.8196826 235.52050781 243.78198242 C233.97693706 242.56657732 232.48275939 241.28889286 231 240 C231 239.34 231 238.68 231 238 C230.41661865 237.73050537 229.8332373 237.46101074 229.23217773 237.18334961 C226.9913949 235.99543816 225.22971821 234.68826986 223.28515625 233.06640625 C222.59873047 232.49986328 221.91230469 231.93332031 221.20507812 231.34960938 C220.49802734 230.75986328 219.79097656 230.17011719 219.0625 229.5625 C212.84156006 224.34728499 212.84156006 224.34728499 206 220 C205.67 220.99 205.34 221.98 205 223 C202.52995764 225.54743272 199.73440396 227.74211269 197 230 C196.12601563 230.72574219 195.25203125 231.45148438 194.3515625 232.19921875 C187.42069009 237.85976997 187.42069009 237.85976997 184 239 C184 239.66 184 240.32 184 241 C181.525 241.99 181.525 241.99 179 243 C179 243.66 179 244.32 179 245 C177.46804728 246.37212301 175.87078919 247.6715446 174.25 248.9375 C170.06656726 252.27676623 166.09501737 255.70940161 162.1875 259.375 C157.36532329 263.88323703 152.30905482 267.97607264 147.08422852 272.00634766 C141.81842266 276.08692625 136.90000214 280.48820226 132 285 C125.97242228 290.3937253 119.76804697 295.57399366 113.53466797 300.72705078 C112.04006859 301.96676461 110.55312167 303.21568606 109.06640625 304.46484375 C93.19888083 317.69144955 93.19888083 317.69144955 83 317 C77.36549359 314.85888757 74.03428471 311.38502345 70.1875 306.875 C67.94035656 301.43454747 68.04262347 295.49309997 70.14453125 290.01953125 C72.36169752 286.41138487 74.90685992 283.90649832 78.0625 281.125 C78.60455078 280.62742187 79.14660156 280.12984375 79.70507812 279.6171875 C83.72472742 276 83.72472742 276 86 276 C86 275.34 86 274.68 86 274 C87.50787161 272.62508701 89.08539761 271.32635538 90.6875 270.0625 C91.68523437 269.26457031 92.68296875 268.46664063 93.7109375 267.64453125 C94.24557617 267.21736816 94.78021484 266.79020508 95.33105469 266.35009766 C98.19815522 264.03074922 101.00391726 261.63959811 103.8125 259.25 C105.87352531 257.49823893 107.93621681 255.74851977 110 254 C110.54446777 253.52498047 111.08893555 253.04996094 111.64990234 252.56054688 C115.78259054 249 115.78259054 249 118 249 C118 248.34 118 247.68 118 247 C119.57286684 245.58561594 121.21139996 244.24395599 122.875 242.9375 C126.73621647 239.8534771 130.48220855 236.71422549 134.125 233.375 C137.1402885 230.62562671 140.18655492 228.02813685 143.4375 225.5625 C147.96369466 222.12579645 152.0878 218.31987567 156.2265625 214.4296875 C158.33825929 212.57972214 160.39030093 210.95964228 162.67333984 209.34814453 C163.2980014 208.90600616 163.92266296 208.4638678 164.56625366 208.0083313 C165.2759581 207.50920731 165.2759581 207.50920731 166 207 C165.04123805 206.99945523 164.0824761 206.99891047 163.09466076 206.99834919 C139.7408311 206.98393891 116.38718751 206.94086068 93.03346539 206.86790943 C81.73965493 206.83329061 70.44596614 206.80790797 59.15209961 206.80444336 C49.30568922 206.80139916 39.45949568 206.78084721 29.61316901 206.73947543 C24.40197933 206.71818531 19.19109764 206.70552438 13.97986412 206.71384621 C9.06888245 206.7214115 4.15852356 206.7054629 -0.75234413 206.67193985 C-2.54893153 206.66373642 -4.34558121 206.66392122 -6.14216232 206.67340279 C-16.16094053 206.7210175 -24.16632728 206.38670017 -33 201 C-33 200.34 -33 199.68 -33 199 C-33.66 199 -34.32 199 -35 199 C-35.65907418 197.8197974 -36.3014948 196.63029266 -36.9375 195.4375 C-37.47697266 194.44556641 -37.47697266 194.44556641 -38.02734375 193.43359375 C-40.75870319 186.59971049 -40.14214179 178.93842796 -40.12939453 171.71044922 C-40.13114685 170.48448532 -40.13289917 169.25852142 -40.13470459 167.9954071 C-40.13834776 164.63544753 -40.13749425 161.27554972 -40.1343255 157.91559362 C-40.13176832 154.34787261 -40.13415066 150.78015399 -40.13571167 147.21243286 C-40.1375326 141.18165628 -40.13513839 135.15089191 -40.13037109 129.12011719 C-40.12560641 123.02473137 -40.1254893 116.9293701 -40.13037109 110.83398438 C-40.17465797 53.50011616 -40.17465797 53.50011616 -39.72799301 27.64657974 C-39.6963255 25.75279856 -39.66908069 23.85893712 -39.64673233 21.96502304 C-39.38252973 0.93111345 -39.38252973 0.93111345 -33.4375 -6.4375 C-21.77875545 -16.79762201 -9.37245616 -8.29051755 0 0 Z M-3 46 C-3.02332916 62.01993537 -3.04097926 78.03986526 -3.05181217 94.0598135 C-3.05697509 101.4976451 -3.06401771 108.93546617 -3.07543945 116.37329102 C-3.08538641 122.85381342 -3.09185346 129.33432819 -3.09408849 135.81485802 C-3.09539558 139.24830542 -3.0984813 142.681731 -3.10573006 146.11517143 C-3.11374416 149.94193821 -3.11399113 153.76868335 -3.11352539 157.59545898 C-3.11712067 158.74200455 -3.12071594 159.88855011 -3.12442017 161.06983948 C-3.1230455 162.10615509 -3.12167084 163.1424707 -3.12025452 164.21018982 C-3.12117631 165.11631232 -3.1220981 166.02243483 -3.12304783 166.95601559 C-3.22715834 168.99395435 -3.22715834 168.99395435 -2 170 C-0.063717 170.09662973 1.87614262 170.12187144 3.81483459 170.12025452 C5.07833237 170.12162918 6.34183014 170.12300385 7.64361572 170.12442017 C9.05676293 170.12088055 10.4699099 170.11724574 11.88305664 170.11352539 C13.36101784 170.11324353 14.83897919 170.11340124 16.31694031 170.1139679 C20.34155828 170.1142559 24.36614672 170.1083587 28.3907578 170.10139394 C32.59216365 170.09516088 36.7935701 170.09455664 40.99497986 170.09336853 C48.95646257 170.09025507 56.91793162 170.08204149 64.8794083 170.07201904 C73.94092589 170.06085836 83.00244412 170.05534757 92.06396687 170.05032361 C110.709319 170.03985888 129.35465841 170.02225916 148 170 C144.83488396 166.78555748 141.77824428 163.99672603 138.0625 161.4375 C132.60609818 157.56449544 127.58879868 153.30454302 122.59594727 148.86108398 C119.72691554 145.97098248 119.72691554 145.97098248 116 145 C116 144.34 116 143.68 116 143 C113.99330762 141.29827606 111.97506887 139.70453427 109.875 138.125 C104.72976731 134.17503127 99.71421199 130.12360583 94.8125 125.875 C90.50608081 122.15393104 86.19147799 118.44820409 81.8125 114.8125 C80.95269531 114.09707031 80.09289062 113.38164062 79.20703125 112.64453125 C77.01256355 110.83015222 77.01256355 110.83015222 74 110 C74 109.34 74 108.68 74 108 C72.35 107.34 70.7 106.68 69 106 C69 105.34 69 104.68 69 104 C66.93095035 102.22610722 64.86238831 100.5715553 62.6875 98.9375 C62.09259766 98.47794922 61.49769531 98.01839844 60.88476562 97.54492188 C58.27844866 95.56179131 56.12789942 94.04263314 53 93 C53 92.34 53 91.68 53 91 C50.82735345 88.95543941 50.82735345 88.95543941 48.125 86.875 C47.22007813 86.15054688 46.31515625 85.42609375 45.3828125 84.6796875 C43.21344189 82.80794766 43.21344189 82.80794766 41 83 C41 82.34 41 81.68 41 81 C38.97269915 79.27664231 36.93463581 77.66192725 34.8125 76.0625 C29.88198915 72.27270007 25.03856998 68.41731646 20.3125 64.375 C15.38300118 60.16042089 10.39353731 56.03840972 5.33984375 51.97265625 C3 50 3 50 0.81640625 47.74609375 C-0.82038106 45.76899475 -0.82038106 45.76899475 -3 46 Z M406 50 C405.55011719 50.47308594 405.10023438 50.94617188 404.63671875 51.43359375 C400.0559824 56.14284776 395.24057811 60.33801009 390.12109375 64.44921875 C386.50278825 67.37642673 383.00519302 70.43908368 379.5 73.5 C375.21814068 77.23437274 370.91666959 80.92460081 366.5 84.5 C361.55619119 88.50317262 356.76499468 92.66260811 351.9753418 96.84716797 C347.16259004 101.03432861 342.25685651 105.0945869 337.3125 109.125 C332.28725362 113.22537519 327.36922287 117.3892559 322.625 121.8125 C318.16641398 125.96778085 313.57879341 129.87367738 308.8359375 133.69921875 C305.75371566 136.19980919 302.71521896 138.74645933 299.6875 141.3125 C299.14617432 141.77068115 298.60484863 142.2288623 298.04711914 142.70092773 C295.1909611 145.12368552 292.34808238 147.5606859 289.51953125 150.015625 C283.13308166 155.54895336 276.68505863 160.91190671 269.91015625 165.96704102 C268.59084016 166.95714806 267.29286145 167.97558985 266 169 C266 169.33 266 169.66 266 170 C312.53 170 359.06 170 407 170 C407.495 111.095 407.495 111.095 408 51 C407.01 50.505 407.01 50.505 406 50 Z " fill="#ffffffff" transform="translate(45,17)"/>
<path d="M0 0 C-1.5830577 4.2742558 -4.50568404 6.26531794 -8 9 C-8 6 -8 6 -6.7578125 4.39453125 C-5.94957031 3.61142578 -5.94957031 3.61142578 -5.125 2.8125 C-4.59132813 2.28269531 -4.05765625 1.75289063 -3.5078125 1.20703125 C-2 0 -2 0 0 0 Z " fill="#ffffffff" transform="translate(125,298)"/>
<path d="M0 0 C0.99 0.33 1.98 0.66 3 1 C2.34 1 1.68 1 1 1 C0.731875 1.598125 0.46375 2.19625 0.1875 2.8125 C-0.99917406 4.99847854 -2.09599113 6.41332594 -4 8 C-4.66 8 -5.32 8 -6 8 C-4.55746343 4.63408134 -2.66735273 2.48952921 0 0 Z " fill="#ffffffff" transform="translate(15,8)"/>
</svg>
